<svg width="61" height="75" viewBox="0 0 61 75" fill="none" xmlns="http://www.w3.org/2000/svg">
      <path
            d="M17.2456 45.7894L18.6243 46.3805L19.5208 44.2894H17.2456V45.7894ZM15.2043 50.5507V52.0507H16.1932L16.5829 51.1418L15.2043 50.5507ZM22.7449 55.3658L21.3661 54.7752L21.3652 54.7772L22.7449 55.3658ZM23.9573 52.5355L25.3361 53.1262L25.8553 51.9142L24.7199 51.2439L23.9573 52.5355ZM22.4856 51.6666L21.7227 52.9581L21.7229 52.9582L22.4856 51.6666ZM17.2456 45.7894V44.2894H14.9046L15.8829 46.4162L17.2456 45.7894ZM54.5293 32.8958H56.0293V31.3958H54.5293V32.8958ZM48.4563 32.8958L47.109 33.5551L47.5204 34.3958H48.4563V32.8958ZM44.8619 25.551L43.5145 26.2102L43.5145 26.2104L44.8619 25.551ZM36.3406 18.5249L35.913 19.9627L35.9414 19.9711L35.9701 19.9785L36.3406 18.5249ZM26.5366 15.6091L26.9642 14.1713L26.9259 14.1599L26.887 14.1506L26.5366 15.6091ZM15.3864 17.9732L16.2989 19.1637L16.2991 19.1635L15.3864 17.9732ZM9.91469 22.1676L10.827 23.3583L10.8273 23.3581L9.91469 22.1676ZM9.09815 28.3551L10.288 27.4418L9.09815 28.3551ZM15.2857 29.1717L16.1978 30.3624L16.198 30.3624L15.2857 29.1717ZM20.7601 24.9772L21.6724 26.1679L21.6737 26.1669L20.7601 24.9772ZM24.2456 24.1304L24.673 22.6926L24.6329 22.6806L24.5922 22.671L24.2456 24.1304ZM26.2731 24.7331L27.6518 25.3241L28.3156 23.7754L26.7005 23.2953L26.2731 24.7331ZM21.1063 36.7868L19.7276 36.1958L19.7273 36.1964L21.1063 36.7868ZM24.7338 47.8639L25.4964 46.5722L25.4964 46.5722L24.7338 47.8639ZM36.4551 54.7838L37.8865 55.232L38.242 54.0968L37.2176 53.4921L36.4551 54.7838ZM32.6661 66.8843L34.0976 67.3326L34.0976 67.3325L32.6661 66.8843ZM35.5585 72.4139L36.0072 70.9826L36.0068 70.9825L35.5585 72.4139ZM41.0895 69.5215L42.5208 69.9704L42.521 69.9697L41.0895 69.5215ZM45.4536 55.5824L46.885 56.0306L46.8909 56.0118L46.8963 55.9929L45.4536 55.5824ZM42.4688 48.0804L43.2435 46.796L43.2374 46.7923L43.2311 46.7886L42.4688 48.0804ZM34.022 43.0956L32.6293 42.5386L32.1513 43.7334L33.2596 44.3875L34.022 43.0956ZM38.3405 32.2985L39.6879 31.6393L38.2028 28.6039L36.9478 31.7415L38.3405 32.2985ZM41.1364 38.013L39.789 38.6722L39.7892 38.6725L41.1364 38.013ZM54.5293 32.8958H53.0293V34.3958H54.5293V32.8958ZM39.0812 16.7422C43.5662 16.7422 47.2018 13.1065 47.2018 8.62158H44.2018C44.2018 11.4497 41.9093 13.7422 39.0812 13.7422V16.7422ZM47.2018 8.62158C47.2018 4.13665 43.5662 0.500977 39.0812 0.500977V3.50098C41.9093 3.50098 44.2018 5.7935 44.2018 8.62158H47.2018ZM39.0812 0.500977C34.5963 0.500977 30.9606 4.13665 30.9606 8.62158H33.9606C33.9606 5.79351 36.2532 3.50098 39.0812 3.50098V0.500977ZM30.9606 8.62158C30.9606 13.1065 34.5963 16.7422 39.0812 16.7422V13.7422C36.2532 13.7422 33.9606 11.4497 33.9606 8.62158H30.9606ZM15.867 45.1983L13.8257 49.9597L16.5829 51.1418L18.6243 46.3805L15.867 45.1983ZM15.2043 49.0507H5.97819V52.0507H15.2043V49.0507ZM5.97819 49.0507C2.71255 49.0507 0.0644531 51.6988 0.0644531 54.9645H3.06445C3.06445 53.3557 4.36941 52.0507 5.97819 52.0507V49.0507ZM0.0644531 54.9645C0.0644531 58.2301 2.71255 60.8782 5.97819 60.8782V57.8782C4.36941 57.8782 3.06445 56.5732 3.06445 54.9645H0.0644531ZM5.97819 60.8782H16.6608V57.8782H5.97819V60.8782ZM16.6608 60.8782C19.9154 60.8782 22.8496 58.943 24.1246 55.9545L21.3652 54.7772C20.563 56.6575 18.7165 57.8782 16.6608 57.8782V60.8782ZM24.1237 55.9565L25.3361 53.1262L22.5785 51.9449L21.3661 54.7752L24.1237 55.9565ZM24.7199 51.2439L23.2482 50.3749L21.7229 52.9582L23.1946 53.8272L24.7199 51.2439ZM23.2484 50.375C21.1462 49.1333 19.5865 47.2891 18.6084 45.1626L15.8829 46.4162C17.0923 49.0455 19.0471 51.3778 21.7227 52.9581L23.2484 50.375ZM17.2456 47.2894H17.2456V44.2894H17.2456V47.2894ZM54.5293 31.3958H48.4563V34.3958H54.5293V31.3958ZM49.8036 32.2364L46.2092 24.8917L43.5145 26.2104L47.109 33.5551L49.8036 32.2364ZM46.2092 24.8918C44.2968 20.9827 40.78 18.1083 36.711 17.0714L35.9701 19.9785C39.1645 20.7925 41.9787 23.0711 43.5145 26.2102L46.2092 24.8918ZM36.7682 17.0872L26.9642 14.1713L26.109 17.0468L35.913 19.9627L36.7682 17.0872ZM26.887 14.1506C22.5442 13.1071 18.0151 14.0672 14.4736 16.7829L16.2991 19.1635C19.1217 16.9992 22.7222 16.2352 26.1861 17.0676L26.887 14.1506ZM14.4738 16.7827L9.00212 20.9772L10.8273 23.3581L16.2989 19.1637L14.4738 16.7827ZM9.00239 20.977C6.4097 22.9635 5.91768 26.6753 7.9083 29.2685L10.288 27.4418C9.30763 26.1646 9.54939 24.3372 10.827 23.3583L9.00239 20.977ZM7.9083 29.2685C9.89837 31.861 13.6075 32.3468 16.1978 30.3624L14.3735 27.9809C13.0963 28.9593 11.2689 28.7196 10.288 27.4418L7.9083 29.2685ZM16.198 30.3624L21.6724 26.1679L19.8478 23.7866L14.3734 27.981L16.198 30.3624ZM21.6737 26.1669C22.4101 25.6014 23.3012 25.4478 23.8989 25.5898L24.5922 22.671C23.0299 22.2999 21.2259 22.7283 19.8465 23.7876L21.6737 26.1669ZM23.8181 25.5682L25.8457 26.1709L26.7005 23.2953L24.673 22.6926L23.8181 25.5682ZM24.8944 24.1421L19.7276 36.1958L22.485 37.3777L27.6518 25.3241L24.8944 24.1421ZM19.7273 36.1964C17.69 40.9557 19.5138 46.524 23.9712 49.1556L25.4964 46.5722C22.3374 44.7072 21.0413 40.7502 22.4852 37.3771L19.7273 36.1964ZM23.9712 49.1556L35.6925 56.0755L37.2176 53.4921L25.4964 46.5722L23.9712 49.1556ZM35.0236 54.3356L31.2347 66.4361L34.0976 67.3325L37.8865 55.232L35.0236 54.3356ZM31.2347 66.436C30.2588 69.5522 31.9943 72.8696 35.1102 73.8454L36.0068 70.9825C34.4718 70.5017 33.6169 68.8674 34.0976 67.3326L31.2347 66.436ZM35.1098 73.8452C35.6949 74.0287 36.2904 74.118 36.8799 74.118V71.118C36.5949 71.118 36.3021 71.075 36.0072 70.9826L35.1098 73.8452ZM36.8799 74.118C39.3951 74.118 41.7277 72.4992 42.5208 69.9704L39.6582 69.0727C39.2678 70.3176 38.119 71.118 36.8799 71.118V74.118ZM42.521 69.9697L46.885 56.0306L44.0221 55.1342L39.658 69.0734L42.521 69.9697ZM46.8963 55.9929C47.8983 52.4713 46.4041 48.7024 43.2435 46.796L41.694 49.3648C43.7058 50.5784 44.6391 52.9639 44.0108 55.1719L46.8963 55.9929ZM43.2311 46.7886L34.7843 41.8038L33.2596 44.3875L41.7064 49.3722L43.2311 46.7886ZM35.4147 43.6527L39.7333 32.8556L36.9478 31.7415L32.6293 42.5386L35.4147 43.6527ZM36.9932 32.9578L39.789 38.6722L42.4838 37.3537L39.6879 31.6393L36.9932 32.9578ZM39.7892 38.6725C41.1445 41.4409 44.0011 43.2219 47.0825 43.2219V40.2219C45.146 40.2219 43.3351 39.0926 42.4836 37.3534L39.7892 38.6725ZM47.0825 43.2219H54.5293V40.2219H47.0825V43.2219ZM54.5293 43.2219C57.795 43.2219 60.4431 40.5738 60.4431 37.3081H57.4431C57.4431 38.9169 56.1381 40.2219 54.5293 40.2219V43.2219ZM60.4431 37.3081C60.4431 34.0419 57.7943 31.3958 54.5293 31.3958V34.3958C56.1387 34.3958 57.4431 35.7 57.4431 37.3081H60.4431ZM56.0293 32.8958V32.8958H53.0293V32.8958H56.0293Z"
            fill="#FD0054" />
</svg>